# xmcd
#
# Track frame offsets: 
#        150
#        24835
#        48124
#        76266
#        96580
#        103742
#        114523
#        130273
#        156920
#        205935
#        220402
#
# Disc length: 3158 seconds
#
# Revision: 0
# Processed by: cddbd v1.5.2PL0 Copyright (c) Steve Scherf et al.
# Submitted via: ExactAudioCopy v0.99pb4
#
DISCID=910c540b
DTITLE=Tommy Emmanuel - Center Stage CD2 of 2
DYEAR=2008
DGENRE=acoustic
TTITLE0=Workin' Man Blues
TTITLE1=Georgia on my Mind
TTITLE2=House of the Risin' Sun
TTITLE3=Amazing Grace
TTITLE4=Story of Little Boy
TTITLE5=Tall Fiddler
TTITLE6=Cowboy's dream 
TTITLE7=Morning Aire
TTITLE8=Initiation
TTITLE9=Lenny Bro'
TTITLE10=Questions
EXTD=
EXTT0=
EXTT1=
EXTT2=
EXTT3=
EXTT4=
EXTT5=
EXTT6=
EXTT7=
EXTT8=
EXTT9=
EXTT10=
PLAYORDER=
